<?xml version="1.0" standalone="no"?><!DOCTYPE svg PUBLIC "-//W3C//DTD SVG 1.1//EN" "http://www.w3.org/Graphics/SVG/1.1/DTD/svg11.dtd"><svg t="1610706826950" class="icon" viewBox="0 0 1024 1024" version="1.1" xmlns="http://www.w3.org/2000/svg" p-id="1496" xmlns:xlink="http://www.w3.org/1999/xlink" width="200" height="200"><defs><style type="text/css"></style></defs><path d="M675.84 66.56H340.48c-56.32 0-102.4 44.8-107.52 101.12h-29.44c-60.16 0-108.8 49.92-108.8 111.36v567.04c0 61.44 48.64 111.36 108.8 111.36h481.28c56.32 0 102.4-44.8 107.52-101.12h29.44c60.16 0 108.8-49.92 108.8-111.36v-473.6l-254.72-204.8z m32 78.08l163.84 131.84h-126.72c-20.48 0-37.12-16.64-37.12-37.12v-94.72z m-24.32 773.12H202.24c-37.12 0-67.84-32-67.84-71.68V279.04c0-39.68 30.72-71.68 67.84-71.68h29.44v537.6c0 61.44 48.64 111.36 108.8 111.36h410.88c-5.12 34.56-33.28 61.44-67.84 61.44z m138.24-101.12H340.48c-37.12 0-67.84-32-67.84-71.68V177.92c0-39.68 30.72-71.68 67.84-71.68h321.28l6.4 5.12v128c0 42.24 34.56 78.08 78.08 78.08h143.36v427.52c0 39.68-30.72 71.68-67.84 71.68z" p-id="1497"></path><path d="M705.28 412.16H357.12c-11.52 0-20.48 8.96-20.48 20.48 0 11.52 8.96 20.48 20.48 20.48H704c11.52 0 20.48-8.96 20.48-20.48 1.28-10.24-7.68-20.48-19.2-20.48zM705.28 526.08H357.12c-11.52 0-20.48 8.96-20.48 20.48 0 11.52 8.96 20.48 20.48 20.48H704c11.52 0 20.48-8.96 20.48-20.48 1.28-11.52-7.68-20.48-19.2-20.48zM560.64 652.8H346.88c-11.52 0-20.48 8.96-20.48 20.48s8.96 20.48 20.48 20.48h213.76c11.52 0 20.48-8.96 20.48-20.48s-8.96-20.48-20.48-20.48z" p-id="1498"></path></svg>