<?xml version="1.0" standalone="no"?><!DOCTYPE svg PUBLIC "-//W3C//DTD SVG 1.1//EN" "http://www.w3.org/Graphics/SVG/1.1/DTD/svg11.dtd"><svg t="1610716594609" class="icon" viewBox="0 0 1024 1024" version="1.1" xmlns="http://www.w3.org/2000/svg" p-id="4941" xmlns:xlink="http://www.w3.org/1999/xlink" width="200" height="200"><defs><style type="text/css"></style></defs><path d="M754.974 764.185c56.404 0 102.345 45.798 102.346 102.228s-45.932 102.266-102.346 102.266c-56.396 0-102.317-45.859-102.317-102.266 0.001-56.401 45.936-102.228 102.317-102.228z m-442.325 0c56.411 0 102.383 45.78 102.384 102.228 0.001 56.441-45.969 102.266-102.384 102.266-56.401 0-102.337-45.849-102.337-102.266 0.001-56.417 45.944-102.228 102.337-102.228zM185.267 193.094h754.391c27.361 0 53.106 13.322 68.908 35.657 15.73 22.234 19.708 51.08 10.682 76.76a2.657 2.657 0 0 1-0.042 0.126l-117.7 330.824c-16.712 46.975-61.46 78.477-111.308 78.477H330.681c-56.203 0-104.952-40.012-115.852-95.155l-77.877-393.962-25.38-116.386H27.124C12.162 109.435 0 97.382 0 82.399 0 67.4 12.137 55.322 27.124 55.322l106.27-0.001c1.006 0 1.618 0.4 2.388 0.455 1.885 0.172 3.705 0.523 5.51 1.094 1.604 0.508 3.138 1.071 4.549 1.855 1.563 0.801 2.942 1.775 4.317 2.86 1.367 1.079 2.602 2.224 3.776 3.599a26.84 26.84 0 0 1 2.734 4.118c0.906 1.603 1.681 3.257 2.259 5.057 0.219 0.738 0.747 1.254 0.966 2.263l25.374 116.472z m569.707 721.454c26.543 0 48.177-21.564 48.177-48.119 0-26.547-21.655-48.069-48.177-48.069-26.526 0-48.15 21.526-48.151 48.069-0.001 26.565 21.595 48.119 48.151 48.119z m-442.325 0c26.542 0 48.172-21.566 48.172-48.119 0-26.547-21.648-48.069-48.172-48.069-26.513 0-48.119 21.545-48.119 48.069 0 26.538 21.583 48.119 48.119 48.119zM196.421 247.206l71.566 362.081c5.897 29.837 32.296 51.466 62.699 51.466h459.523c26.964 0 51.218-17.045 60.26-42.457l117.695-330.823c3.329-9.356 1.9-19.391-3.838-27.488-5.747-8.109-14.699-12.779-24.648-12.779H196.421z" p-id="4942"></path></svg>